<?xml version="1.0" encoding="UTF-8"?>
<!DOCTYPE svg PUBLIC "-//W3C//DTD SVG 1.1//EN" "http://www.w3.org/Graphics/SVG/1.1/DTD/svg11.dtd">
<!-- Creator: CorelDRAW X7 -->
<svg xmlns="http://www.w3.org/2000/svg" xml:space="preserve" width="247.218mm" height="271.385mm" version="1.1" style="shape-rendering:geometricPrecision; text-rendering:geometricPrecision; image-rendering:optimizeQuality; fill-rule:evenodd; clip-rule:evenodd"
viewBox="0 0 417 458"
 xmlns:xlink="http://www.w3.org/1999/xlink">
 <defs>
  <style type="text/css">
   <![CDATA[
    .fil0 {fill:black}
   ]]>
  </style>
 </defs>
 <g id="Слой_x0020_1">
  <metadata id="CorelCorpID_0Corel-Layer"/>
  <path class="fil0" d="M416 235c-4,-42 -29,-67 -52,-95 -33,-40 -63,-65 -95,-107 -12,-17 -25,-39 -28,-32 -5,9 2,51 3,62 -44,-43 -86,-48 -131,-51 -25,-2 -69,0 -73,10 -4,9 45,0 85,50 -54,-10 -97,5 -111,22 -5,6 34,-3 58,33 -14,11 -28,24 -40,38 -56,70 -33,175 27,234 72,72 200,79 279,16 52,-40 86,-113 78,-180zm-184 97c-2,1 -4,0 -6,-2 -3,-4 -6,-11 -17,-11 -12,-1 -16,6 -19,10 -2,2 -5,3 -6,1 -4,-3 2,-18 22,-19l0 -5c-8,0 -17,-3 -23,-8 3,-9 8,-12 11,-11 5,1 3,7 0,6 -2,-1 -3,2 -1,3 2,1 5,1 7,-3 3,-4 0,-9 -5,-10 -4,-1 -12,2 -15,12 -4,-5 -6,-11 -4,-17 4,-16 17,-29 34,-29 17,0 31,18 34,32 0,6 -2,13 -7,16 -1,-4 -3,-8 -7,-11 -4,-4 -13,-2 -13,5 0,5 7,7 8,4 1,-3 -5,-1 -4,-5 0,-1 1,-3 3,-3 6,0 8,8 10,12 -6,4 -14,7 -21,7l0 5c20,3 25,20 19,21zm75 -76c-2,1 -4,2 -4,3 0,1 8,3 12,3 -2,7 -8,12 -16,12 -10,0 -18,-8 -17,-18 -10,0 -17,1 -17,6 0,8 16,15 36,17 24,1 35,-7 35,-15 0,-7 -12,-8 -29,-8zm-179 -5c-2,1 -4,2 -4,3 0,1 8,3 12,4 -2,7 -8,12 -16,12 -10,0 -18,-9 -17,-19 -12,0 -20,1 -20,7 0,7 10,16 34,16 20,0 37,-7 37,-15 0,-6 -11,-7 -26,-8zm244 23c-4,-16 -27,-64 -44,-62 -10,1 -25,5 -39,9 -23,6 -31,8 -38,10 -7,2 -8,-11 -11,-8 -4,4 2,18 13,17 -12,31 21,54 47,59 14,4 21,1 31,3 17,3 27,12 32,18 -32,74 -128,107 -202,84 -42,-12 -84,-37 -106,-75 -1,-2 -2,-5 -3,-7 4,-6 14,-16 33,-20 10,-2 17,1 31,-3 26,-5 59,-28 47,-59 11,1 17,-13 13,-17 -2,-3 -4,10 -10,8 -8,-2 -16,-4 -39,-10 -14,-4 -29,-8 -39,-9 -15,-1 -37,41 -41,53 6,-38 24,-56 53,-79 11,-10 22,-20 33,-30 21,-18 52,-21 75,-7 25,-16 59,-10 79,11 34,37 84,53 85,114z"/>
 </g>
</svg>
