<?xml version="1.0" encoding="UTF-8"?>
<!DOCTYPE svg PUBLIC "-//W3C//DTD SVG 1.1//EN" "http://www.w3.org/Graphics/SVG/1.1/DTD/svg11.dtd">
<!-- Creator: CorelDRAW X7 -->
<svg xmlns="http://www.w3.org/2000/svg" xml:space="preserve" width="291.442mm" height="304.8mm" version="1.1" style="shape-rendering:geometricPrecision; text-rendering:geometricPrecision; image-rendering:optimizeQuality; fill-rule:evenodd; clip-rule:evenodd"
viewBox="0 0 617 645"
 xmlns:xlink="http://www.w3.org/1999/xlink">
 <defs>
  <style type="text/css">
   <![CDATA[
    .fil0 {fill:black}
   ]]>
  </style>
 </defs>
 <g id="Слой_x0020_1">
  <metadata id="CorelCorpID_0Corel-Layer"/>
  <path class="fil0" d="M425 484c-26,-13 -51,-10 -78,-5 -46,9 -81,27 -92,42 -5,7 -8,14 -11,16 -3,1 -4,-13 22,-39 -39,-27 -42,-39 -41,-41 2,-4 18,19 54,33 26,-12 55,-18 83,-23 -6,-11 -12,-27 -11,-40 42,-41 63,-72 71,-120 8,-49 1,-88 -49,-129 -18,-15 -41,-27 -60,-42 -5,-5 -16,-28 -24,-36 -5,-4 -11,-8 -14,-8 -2,0 5,4 8,35 -18,-32 -54,-54 -92,-51 -7,0 0,4 3,5 19,11 31,31 33,52 -30,-26 -74,-27 -79,-22 -2,2 22,7 30,22 6,9 4,18 -3,22 -23,15 -74,51 -82,106 -4,29 4,69 14,94 5,11 13,23 14,31 1,7 -3,24 -7,34 -14,34 -22,73 -5,107 23,47 105,115 159,118 11,1 29,-1 14,-15 13,0 25,-2 36,-7 6,-2 8,-8 1,-10 37,-23 80,-54 112,-85 0,-1 3,-3 4,0 1,4 -7,13 -11,16 11,-3 28,-12 38,-21 -4,-15 -20,-30 -37,-39zm-116 -484c170,0 308,138 308,309 0,157 -119,289 -275,306 1,-1 1,-3 1,-4 25,-16 48,-34 69,-54 100,-42 165,-140 165,-248 0,-149 -120,-269 -268,-269 -149,0 -269,120 -269,269 0,58 19,113 51,157 -3,13 -5,39 10,70 -65,-58 -101,-140 -101,-227 0,-171 138,-309 309,-309zm-3 284c4,10 -4,18 -12,22 3,3 5,6 8,9 10,-5 13,-10 16,-10 3,0 4,11 3,20 -1,7 -2,13 -7,19 -1,1 -2,0 -1,-2 2,-8 5,-16 2,-27 -9,9 -29,13 -43,10 -6,-1 -9,-5 -10,-9 0,-2 2,-4 4,-3 3,2 3,4 7,6 8,2 16,1 24,-2 -3,-3 -5,-6 -8,-9 -12,4 -39,1 -37,-16 1,-12 10,-29 24,-30 14,-1 26,10 30,22zm208 119c-6,1 -62,1 -54,-8 7,-6 13,-4 43,-18 4,0 7,1 2,5 -9,7 -20,10 -31,13 22,5 46,5 66,-7 7,-4 22,-13 18,-21 -2,-4 -6,-5 -11,-4 -13,5 -27,8 -41,9 -11,1 -90,1 -44,-16 11,-4 28,-12 38,-14 1,0 2,1 1,1 -1,6 -30,17 -37,20 21,5 42,5 62,-1 8,-2 23,-7 23,-17 0,-13 -39,-10 -54,-10 13,-30 6,-63 -6,-73 -4,-3 0,13 -4,32 -4,16 -14,30 -26,42 -20,15 -33,33 -36,62 -2,22 -12,47 -20,68 27,6 54,22 69,48 7,-5 26,-22 32,-30 1,-18 9,-61 13,-66 4,-5 9,-10 9,-17 -4,1 -8,1 -12,2zm-143 90c1,3 -4,3 -13,5 -8,3 -14,6 -15,2 -1,-7 27,-16 28,-7zm-229 44c3,0 6,3 9,9 3,5 6,9 2,10 -5,0 -18,-18 -11,-19zm61 32c2,-2 6,0 13,4 5,3 11,6 10,9 -4,5 -27,-6 -23,-13zm-33 2c3,-2 7,2 14,7 6,4 13,10 10,13 -5,5 -30,-13 -24,-20zm48 28c2,-3 8,-1 18,3 7,3 17,6 15,11 -4,7 -38,-4 -33,-14zm168 -91c1,2 -3,3 -8,3 -4,1 -9,2 -9,-1 -1,-5 17,-8 17,-2zm27 -14c-1,3 -4,2 -12,2 -6,0 -12,1 -11,-3 1,-7 23,-6 23,1zm-200 -230c-2,2 -4,4 -4,4 1,1 7,1 9,1 0,3 -1,6 -3,9 11,0 19,-2 19,-5 0,-3 -8,-7 -21,-9zm-18 14c-3,-4 -3,-10 0,-14 -12,1 -21,5 -21,9 0,3 9,4 21,5zm155 -11c-2,1 -4,4 -4,4 1,1 6,1 8,1 1,3 0,7 -3,9 14,1 24,1 24,-3 0,-4 -9,-10 -25,-11zm-18 13c-2,-4 -3,-9 0,-12 -9,1 -14,4 -14,7 0,3 5,4 14,5zm61 -2c-5,-6 -10,-12 -13,-18 -8,-13 -16,-26 -29,-33 -13,-7 -27,-10 -42,-9 -9,0 -9,6 0,7 -4,13 -4,28 -3,42 3,24 27,12 37,36 2,4 8,2 12,2 14,-1 24,4 32,14 -25,83 -109,110 -180,64 -23,-15 -45,-38 -57,-64 14,-16 35,-10 57,-14 49,-10 40,-43 31,-83 7,-1 13,0 12,-4 -1,-5 -48,-8 -73,20 -14,17 -19,31 -29,46 -2,3 -4,6 -6,8 -6,-44 20,-67 55,-90 12,-7 23,-13 35,-21 20,-13 34,-7 51,13 0,0 0,0 1,0 7,-22 18,-17 34,-8 15,10 30,19 43,31 22,18 31,31 32,61z"/>
 </g>
</svg>
