<?xml version="1.0" encoding="UTF-8"?>
<!DOCTYPE svg PUBLIC "-//W3C//DTD SVG 1.1//EN" "http://www.w3.org/Graphics/SVG/1.1/DTD/svg11.dtd">
<!-- Creator: CorelDRAW X7 -->
<svg xmlns="http://www.w3.org/2000/svg" xml:space="preserve" width="256.55mm" height="291.383mm" version="1.1" style="shape-rendering:geometricPrecision; text-rendering:geometricPrecision; image-rendering:optimizeQuality; fill-rule:evenodd; clip-rule:evenodd"
viewBox="0 0 412 468"
 xmlns:xlink="http://www.w3.org/1999/xlink">
 <defs>
  <style type="text/css">
   <![CDATA[
    .fil0 {fill:black}
   ]]>
  </style>
 </defs>
 <g id="Слой_x0020_1">
  <metadata id="CorelCorpID_0Corel-Layer"/>
  <path class="fil0" d="M411 241c-9,-79 -69,-111 -119,-159 -13,-13 -20,-29 -24,-47 0,0 -1,0 -1,0 -10,10 -11,27 -12,41 -20,-55 -83,-80 -91,-76 -4,2 4,9 5,11 12,19 17,38 12,60 -11,-11 -26,-18 -40,-23 -5,-1 -40,-7 -26,5 8,7 21,19 13,29 -8,12 -22,18 -33,27 -23,17 -46,36 -63,59 -56,70 -33,179 26,239 71,74 197,81 276,17 51,-41 84,-116 77,-183zm-292 -5c5,0 10,3 13,6 -3,2 -11,7 -10,9 0,1 11,-1 14,-2 3,12 -5,23 -17,23 -10,0 -18,-8 -18,-18 0,-10 8,-18 18,-18zm71 129c0,-2 7,1 16,1 10,0 17,-4 18,-1 0,3 -7,6 -17,6 -9,0 -19,-3 -17,-6zm-47 -73c2,-3 5,-2 6,0 1,2 -2,9 4,14 17,15 39,8 51,9l0 -10c-8,-1 -15,-3 -22,-8 4,-9 9,-11 12,-10 4,1 2,6 0,5 -2,-1 -4,2 -2,3 2,1 5,1 7,-2 3,-5 0,-9 -4,-10 -5,-1 -12,2 -15,12 -4,-5 -6,-11 -4,-17 4,-15 17,-27 32,-27 17,0 30,17 32,30 1,6 -1,12 -6,16 -1,-4 -3,-9 -6,-12 -5,-3 -13,-1 -13,5 0,5 7,7 8,4 1,-2 -5,0 -4,-4 0,-2 1,-3 3,-3 6,-1 8,7 9,12 -5,3 -12,5 -19,6l0 10c12,2 29,5 46,-4 5,-3 10,-9 9,-17 0,-2 3,-4 5,-1 2,2 2,8 0,11 -4,8 -15,15 -21,21 -8,9 -12,17 -22,24 -12,7 -34,10 -48,-1 -7,-6 -12,-15 -17,-22 -7,-7 -15,-12 -20,-21 -2,-4 -2,-9 -1,-13zm48 54c6,3 12,4 20,4 7,-1 13,-3 18,-7 -2,-4 -11,-7 -19,-2 -10,-4 -16,-1 -19,5zm-140 -73c10,-24 29,-50 47,-60 18,-11 45,-11 58,7 8,12 16,28 12,42 -3,8 -12,10 -18,14 -4,3 -8,8 -12,12 -22,25 -57,7 -77,36 27,50 87,93 146,93 57,0 116,-44 142,-94 -20,-32 -50,-6 -73,-32 -3,-4 -7,-8 -12,-11 -6,-5 -15,-6 -18,-14 -4,-15 4,-31 12,-42 13,-18 40,-19 58,-8 21,13 38,38 45,63 5,-65 -46,-82 -81,-119 -19,-21 -51,-27 -75,-11 -22,-14 -52,-11 -71,7 -11,9 -21,19 -32,28 -30,26 -48,47 -51,89zm68 -44c-16,0 -30,12 -30,27 1,16 28,29 43,17 7,-5 13,-8 13,-19 -1,-15 -11,-25 -26,-25zm177 7c5,0 10,3 13,6 -3,2 -11,7 -10,9 0,1 11,-1 14,-2 3,12 -5,23 -17,23 -10,0 -18,-8 -18,-18 0,-10 8,-18 18,-18zm0 -7c16,0 30,12 30,27 -1,16 -28,29 -43,17 -7,-5 -13,-8 -13,-19 1,-15 11,-25 26,-25z"/>
 </g>
</svg>
