<?xml version="1.0" encoding="UTF-8"?>
<!DOCTYPE svg PUBLIC "-//W3C//DTD SVG 1.1//EN" "http://www.w3.org/Graphics/SVG/1.1/DTD/svg11.dtd">
<!-- Creator: CorelDRAW X7 -->
<svg xmlns="http://www.w3.org/2000/svg" xml:space="preserve" width="256.551mm" height="289.416mm" version="1.1" style="shape-rendering:geometricPrecision; text-rendering:geometricPrecision; image-rendering:optimizeQuality; fill-rule:evenodd; clip-rule:evenodd"
viewBox="0 0 451 508"
 xmlns:xlink="http://www.w3.org/1999/xlink">
 <defs>
  <style type="text/css">
   <![CDATA[
    .fil0 {fill:black}
   ]]>
  </style>
 </defs>
 <g id="Слой_x0020_1">
  <metadata id="CorelCorpID_0Corel-Layer"/>
  <path class="fil0" d="M449 260c-9,-86 -75,-118 -129,-171 -14,-13 -22,-31 -27,-50 0,-1 -1,-1 -1,-1 -11,12 -12,30 -13,46 -22,-61 -90,-88 -100,-84 -3,2 5,10 6,12 13,21 19,42 13,66 -12,-12 -28,-20 -44,-25 -5,-2 -43,-9 -28,5 8,7 22,21 15,32 -9,12 -25,20 -37,29 -25,19 -50,38 -69,63 -61,77 -36,194 28,260 78,81 216,88 302,19 56,-46 92,-127 84,-201zm-319 0c5,0 10,3 14,7 -3,2 -12,7 -11,9 0,2 12,0 16,-1 3,12 -6,25 -19,25 -11,0 -20,-9 -20,-20 0,-11 9,-20 20,-20zm-75 42c12,-26 33,-54 52,-66 20,-12 49,-11 64,8 9,13 17,31 13,46 -3,9 -13,11 -20,16 -5,3 -9,8 -13,12 -24,28 -62,9 -85,40 23,41 67,66 109,79 76,24 170,-8 207,-80 -22,-35 -55,-7 -80,-35 -4,-4 -8,-9 -13,-12 -6,-5 -17,-7 -19,-16 -5,-16 4,-33 13,-46 14,-19 43,-20 63,-8 23,14 41,42 49,69 5,-71 -50,-89 -89,-131 -20,-22 -56,-28 -81,-12 -24,-15 -57,-12 -79,8 -11,10 -22,21 -34,31 -33,28 -53,51 -57,97zm74 -51c-17,0 -32,13 -32,29 0,17 15,30 32,30 17,0 31,-13 30,-30 -1,-17 -13,-29 -30,-29zm194 12c6,0 11,3 14,6 -2,2 -11,8 -11,10 1,2 12,-1 16,-2 4,13 -6,26 -19,26 -11,0 -20,-9 -20,-20 0,-11 9,-20 20,-20zm-90 74l0 17c39,-1 44,-14 49,-22 2,-3 5,-3 8,-2 7,4 0,36 -68,34 -50,-1 -61,-28 -54,-35 2,-2 6,-3 8,0 3,5 5,14 18,20 9,4 20,5 30,5l0 -17c-9,0 -18,-3 -24,-8 4,-10 9,-12 12,-12 5,1 3,7 0,6 -2,-1 -4,2 -2,3 3,2 6,2 8,-2 3,-5 0,-10 -5,-11 -5,-1 -13,2 -16,13 -5,-5 -7,-12 -4,-19 4,-16 18,-29 35,-29 18,0 33,19 35,33 1,7 -2,13 -7,17 -1,-4 -3,-9 -7,-12 -4,-4 -13,-2 -13,5 0,5 7,8 8,4 1,-2 -5,0 -5,-4 0,-2 2,-3 4,-3 7,-1 9,7 10,12 -6,4 -13,6 -20,7zm91 -83c17,0 32,14 32,30 0,16 -15,30 -32,30 -16,0 -30,-13 -30,-31 1,-16 14,-29 30,-29z"/>
 </g>
</svg>
