<?xml version="1.0" encoding="UTF-8"?>
<!DOCTYPE svg PUBLIC "-//W3C//DTD SVG 1.1//EN" "http://www.w3.org/Graphics/SVG/1.1/DTD/svg11.dtd">
<!-- Creator: CorelDRAW X7 -->
<svg xmlns="http://www.w3.org/2000/svg" xml:space="preserve" width="301.361mm" height="326.497mm" version="1.1" style="shape-rendering:geometricPrecision; text-rendering:geometricPrecision; image-rendering:optimizeQuality; fill-rule:evenodd; clip-rule:evenodd"
viewBox="0 0 595 644"
 xmlns:xlink="http://www.w3.org/1999/xlink">
 <defs>
  <style type="text/css">
   <![CDATA[
    .fil0 {fill:black}
   ]]>
  </style>
 </defs>
 <g id="Слой_x0020_1">
  <metadata id="CorelCorpID_0Corel-Layer"/>
  <path class="fil0" d="M593 372c-9,-84 -70,-122 -127,-170 -8,-15 -13,-31 -15,-50 -1,-18 6,-28 -7,-22 -19,10 -30,34 -35,54 -33,-61 -142,-78 -154,-68 -4,3 35,28 45,59 -42,-11 -92,-11 -129,12 -3,2 -10,7 -6,10 4,3 31,-5 51,11 -31,20 -69,49 -93,78 -68,85 -40,213 33,286 88,88 245,96 342,20 63,-50 104,-139 95,-220zm-388 -345l-52 12c-16,4 -20,-17 -2,-21l78 -18c11,-2 25,9 10,27l-46 52 51 -11c21,-5 23,16 5,20l-82 19c-10,2 -24,-8 -9,-27l47 -53zm-132 101l-37 26c-11,8 -20,-7 -8,-16l55 -39c7,-6 22,-1 16,17l-18 56 35 -26c15,-10 24,5 11,14l-57 42c-7,4 -22,1 -16,-19l19 -55zm-38 136l-23 27c-7,8 -17,-1 -9,-10l33 -41c5,-5 17,-5 16,10l-3 46 22 -27c9,-10 19,0 11,9l-35 43c-4,5 -16,5 -16,-11l4 -46zm299 199c-2,7 -6,13 -11,19 -12,-1 -18,6 -18,11 -1,12 17,19 28,14 5,-4 5,-13 -2,-22 5,-7 8,-14 11,-22 10,0 19,-3 27,-8 -1,-5 -3,-15 -11,-14 -2,0 -4,2 -4,4 0,4 6,2 5,5 -1,4 -9,1 -9,-5 0,-8 10,-10 15,-6 5,4 7,9 8,14 6,-4 9,-12 8,-19 -3,-16 -19,-37 -39,-37 -20,0 -35,14 -40,33 -3,7 -1,15 5,21 3,-12 12,-16 17,-15 6,1 10,7 6,12 -2,4 -6,5 -9,3 -2,-1 0,-4 2,-3 4,1 6,-6 0,-7 -3,-1 -9,2 -13,13 7,5 15,8 24,9zm-184 -48c9,-23 23,-44 43,-60 13,-9 35,-21 46,-19 4,1 3,5 -1,6 -4,0 -8,2 -12,4 35,-5 62,33 59,65 -1,16 -13,28 -26,37 -42,27 -75,-1 -101,38 23,47 77,77 125,92 85,25 192,-10 233,-91 -27,-40 -59,-12 -102,-39 -13,-9 -24,-21 -26,-37 -3,-32 24,-70 59,-65 -4,-2 -8,-4 -12,-4 -4,-1 -5,-5 -1,-6 11,-2 34,10 46,19 27,22 42,51 50,83 7,-79 -56,-100 -99,-145 -24,-24 -64,-32 -92,-13 -27,-17 -64,-13 -88,8 -13,11 -26,23 -39,35 -33,27 -54,48 -62,92zm114 -20c-6,-1 2,23 -24,30 -19,5 -27,-20 -31,-17 -5,3 9,29 32,25 30,-5 31,-38 23,-38zm149 3c6,-1 -3,23 23,30 20,5 27,-20 32,-17 5,3 -10,29 -33,25 -29,-5 -30,-37 -22,-38z"/>
 </g>
</svg>
