<?xml version="1.0" encoding="UTF-8"?>
<!DOCTYPE svg PUBLIC "-//W3C//DTD SVG 1.1//EN" "http://www.w3.org/Graphics/SVG/1.1/DTD/svg11.dtd">
<!-- Creator: CorelDRAW X7 -->
<svg xmlns="http://www.w3.org/2000/svg" xml:space="preserve" width="247.218mm" height="302.299mm" version="1.1" style="shape-rendering:geometricPrecision; text-rendering:geometricPrecision; image-rendering:optimizeQuality; fill-rule:evenodd; clip-rule:evenodd"
viewBox="0 0 382 467"
 xmlns:xlink="http://www.w3.org/1999/xlink">
 <defs>
  <style type="text/css">
   <![CDATA[
    .fil0 {fill:black}
   ]]>
  </style>
 </defs>
 <g id="Слой_x0020_1">
  <metadata id="CorelCorpID_0Corel-Layer"/>
  <path class="fil0" d="M381 263c-3,-29 -18,-48 -30,-69 -26,-42 -67,-81 -82,-122 -3,-9 -6,-22 -10,-19 -7,5 -16,34 -14,57 -45,-71 -6,-107 -11,-109 -14,-6 -90,38 -92,108 -21,-27 -56,-36 -67,-33 -2,1 10,9 10,23 0,26 -16,51 -29,67 -11,14 -15,18 -27,33 -51,64 -30,160 25,214 66,66 183,72 256,15 47,-37 78,-104 71,-165zm-234 60c-2,1 -2,10 -2,18 1,4 4,12 5,14 2,2 4,1 4,-1 0,-3 -3,-11 -2,-21 12,9 33,18 51,17 23,0 30,-13 31,-19 1,-4 -4,-8 -7,-4 -3,4 -6,13 -16,14 -19,3 -31,-1 -42,-7 4,-2 9,-5 13,-8 11,3 24,1 34,-5 -2,-4 -3,-12 -9,-11 -2,0 -3,1 -4,3 0,3 5,1 5,4 -1,3 -8,1 -8,-4 0,-6 8,-8 12,-5 4,3 5,7 6,11 5,-3 7,-9 6,-14 -1,-13 -14,-30 -30,-30 -16,0 -27,12 -32,26 -1,6 0,12 4,16 3,-9 10,-12 14,-11 5,1 7,5 5,9 -2,4 -5,4 -7,3 -2,-1 0,-4 1,-3 3,1 5,-4 0,-5 -3,-1 -7,1 -10,10 2,1 4,2 6,3 -5,3 -10,5 -15,7 -6,-4 -11,-8 -13,-7zm16 -74c-2,-3 -12,-3 -18,-3 -8,0 -29,0 -37,0 -28,0 -28,-1 -33,3 -8,6 -23,25 -33,50 3,-40 21,-59 49,-82 11,-9 20,-18 31,-27 19,-17 47,-20 69,-7 22,-14 53,-8 71,11 35,36 86,53 78,117 -8,-33 -26,-66 -57,-80 -9,-4 -26,-9 -31,-5 -3,2 6,2 14,6 -24,4 -41,32 -37,55 2,14 13,24 25,31 31,18 52,-3 75,28 -32,64 -116,91 -182,71 -38,-12 -77,-34 -96,-69 -1,-1 -1,-2 -2,-3 9,-12 19,-24 34,-27 12,-2 22,1 33,-2 7,-2 14,-16 28,-20 16,-5 15,-29 8,-42 4,0 13,0 11,-5zm-67 28c-11,0 -19,1 -19,6 0,7 10,15 32,15 18,-1 33,-7 33,-14 1,-6 -10,-7 -24,-7 -2,1 -3,2 -3,3 0,1 7,2 11,3 -2,6 -8,11 -15,11 -9,0 -16,-8 -15,-17zm183 4c16,1 28,1 27,8 0,7 -10,14 -32,13 -18,-1 -33,-8 -33,-15 0,-5 7,-6 16,-6 -1,9 6,17 15,17 7,0 13,-4 15,-11 -4,-1 -11,-2 -11,-3 0,-1 1,-2 3,-3z"/>
 </g>
</svg>
