<?xml version="1.0" encoding="UTF-8"?>
<!DOCTYPE svg PUBLIC "-//W3C//DTD SVG 1.1//EN" "http://www.w3.org/Graphics/SVG/1.1/DTD/svg11.dtd">
<!-- Creator: CorelDRAW X7 -->
<svg xmlns="http://www.w3.org/2000/svg" xml:space="preserve" width="247.219mm" height="302.299mm" version="1.1" style="shape-rendering:geometricPrecision; text-rendering:geometricPrecision; image-rendering:optimizeQuality; fill-rule:evenodd; clip-rule:evenodd"
viewBox="0 0 398 487"
 xmlns:xlink="http://www.w3.org/1999/xlink">
 <defs>
  <style type="text/css">
   <![CDATA[
    .fil0 {fill:black}
   ]]>
  </style>
 </defs>
 <g id="Слой_x0020_1">
  <metadata id="CorelCorpID_0Corel-Layer"/>
  <path class="fil0" d="M397 274c-3,-30 -18,-50 -31,-72 -27,-43 -69,-84 -85,-127 -4,-9 -6,-23 -11,-19 -7,5 -17,35 -14,58 -48,-73 -7,-111 -12,-113 -15,-7 -94,39 -96,112 -22,-28 -59,-37 -70,-33 -2,0 10,9 10,23 0,28 -16,54 -29,70 -12,14 -16,19 -28,34 -54,67 -32,167 25,224 69,69 191,75 267,15 49,-39 81,-108 74,-172zm-215 59c-3,2 -7,4 -12,5 -6,-4 -14,-7 -16,-5 -2,2 -1,8 -1,15 0,7 2,15 3,16 2,2 5,2 5,-2 0,-2 -3,-9 -3,-20 20,6 26,14 29,17 3,2 5,-1 4,-3 -2,-3 -9,-10 -15,-14 4,-2 8,-5 12,-7 12,3 26,2 37,-5 -1,-5 -3,-12 -10,-12 -1,0 -3,2 -3,3 0,4 5,2 4,5 0,3 -7,0 -7,-4 0,-7 8,-9 12,-5 4,3 6,7 7,11 4,-3 7,-9 6,-15 -2,-14 -15,-31 -32,-31 -16,0 -28,12 -33,27 -2,6 0,12 4,17 3,-10 10,-12 15,-12 4,1 7,6 5,10 -2,4 -5,4 -8,2 -1,-1 0,-3 2,-2 3,1 4,-5 0,-6 -3,-1 -8,2 -11,11 2,1 4,2 6,4zm-12 -78c-2,-3 -12,-4 -19,-4 -8,0 -30,1 -38,1 -29,0 -30,-1 -35,3 -8,6 -24,26 -35,52 4,-41 22,-61 52,-86 11,-9 21,-18 32,-28 20,-17 49,-20 72,-6 23,-16 55,-10 75,10 36,38 89,55 81,122 -9,-34 -27,-68 -60,-83 -10,-5 -27,-9 -32,-5 -3,2 6,2 14,6 -25,5 -42,33 -39,58 2,14 14,25 26,32 33,18 55,-3 79,29 -34,66 -121,95 -190,74 -39,-12 -83,-37 -102,-75 9,-13 20,-25 36,-28 12,-2 22,0 34,-3 7,-1 14,-16 29,-20 17,-5 16,-30 9,-44 4,0 13,0 11,-5zm-70 29c-12,0 -19,1 -19,6 -1,7 10,16 33,15 18,0 34,-6 34,-14 1,-6 -10,-7 -25,-7 -2,1 -3,2 -3,3 0,1 7,2 12,3 -2,7 -9,12 -16,12 -10,0 -17,-9 -16,-18zm191 5c16,0 29,0 28,7 0,8 -10,15 -33,14 -19,-1 -35,-8 -34,-16 0,-4 6,-6 15,-6 0,10 7,18 17,18 7,0 13,-5 15,-11 -4,-1 -11,-2 -11,-4 0,-1 1,-1 3,-2z"/>
 </g>
</svg>
